<svg id="Logos" xmlns="http://www.w3.org/2000/svg" viewBox="0 0 522 180"><defs><style>.cls-1{fill:#00a7e2;}.cls-2{fill:#25282b;}</style></defs><title>logotype_horizontal</title><path class="cls-1" d="M47,115.18l10.61,25.46a4.7,4.7,0,0,0,6.11,2.54l25.89-10.59Z"/><path class="cls-1" d="M47.54,63.75,36.36,90.56a4.7,4.7,0,0,0,2.57,6.16l26.32,10.67Z"/><path class="cls-1" d="M82.07,150.88l26.38,11a4.71,4.71,0,0,0,6.17-2.59l10.53-26.23Z"/><path class="cls-1" d="M84.23,28.42l-26.34,11a4.7,4.7,0,0,0-2.55,6.09L66,71.84Z"/><path class="cls-1" d="M169.73,65.61l-10.9-26.17a4.7,4.7,0,0,0-6.15-2.52L126.63,47.85Z"/><path class="cls-1" d="M134.42,29.31,108.71,18.6a4.7,4.7,0,0,0-6.13,2.51l-11,26.17Z"/><path class="cls-1" d="M132.91,151.51l26.25-10.93a4.7,4.7,0,0,0,2.52-6.17l-11.1-26.18Z"/><path class="cls-1" d="M106,56.52,86.11,64.84a6.21,6.21,0,0,0-3.33,3.33L74.46,88a6.19,6.19,0,0,0,0,4.78l8.14,19.68A6.22,6.22,0,0,0,86,115.84L105.63,124a6.21,6.21,0,0,0,4.79,0l19.84-8.32a6.21,6.21,0,0,0,3.33-3.33l8.32-19.84a6.21,6.21,0,0,0,0-4.79L133.78,68a6.19,6.19,0,0,0-3.37-3.37l-19.67-8.14A6.17,6.17,0,0,0,106,56.52Z"/><path class="cls-1" d="M169.15,116l10.78-25.87A4.68,4.68,0,0,0,177.38,84L151.16,73.2Z"/><path class="cls-2" d="M434.32,92.61a27.65,27.65,0,0,0-.69-4.94,21,21,0,0,0-1.92-5.07,14.23,14.23,0,0,0-3.83-4.48A20.19,20.19,0,0,0,421.69,75a29.45,29.45,0,0,0-9.12-1.23,36.58,36.58,0,0,0-11.67,1.9A24.73,24.73,0,0,0,391,81.92l-.34.34,7.25,7.26.35-.34a18.47,18.47,0,0,1,5.79-3.7,18.93,18.93,0,0,1,7.21-1.37,13.27,13.27,0,0,1,7.94,2.25c2,1.48,3,3.65,3,6.63v.86h-2.63c-2.09,0-4.34.05-6.69.16a60.41,60.41,0,0,0-7.09.73A40.93,40.93,0,0,0,399,96.48a20.41,20.41,0,0,0-5.81,3.16,14.69,14.69,0,0,0-4,5,15.74,15.74,0,0,0-1.51,7.16,13.82,13.82,0,0,0,1.63,6.8,15,15,0,0,0,4.25,4.85,18.82,18.82,0,0,0,6,2.89,25.19,25.19,0,0,0,6.86.95,22.2,22.2,0,0,0,9.38-2,16.29,16.29,0,0,0,6.48-5.49V126h12.24V96.74C434.42,95.59,434.39,94.23,434.32,92.61Zm-12.87,13.3a10.88,10.88,0,0,1-2.93,8c-1.94,1.94-5,2.93-9.18,2.93a13.37,13.37,0,0,1-3-.35,8.08,8.08,0,0,1-2.65-1.13,6.54,6.54,0,0,1-1.89-1.89,4.82,4.82,0,0,1-.71-2.7,4.51,4.51,0,0,1,1.79-3.83,13.77,13.77,0,0,1,4.67-2.21,31.34,31.34,0,0,1,6-1c2.14-.14,4.09-.21,5.8-.21h2.11Z"/><path class="cls-2" d="M445.08,114.16l27.26-27.68h-26V75h41.56V86.46l-27.18,27.7H489.3L484.2,126H445.08Z"/><path class="cls-2" d="M286.65,73.56c-15.49,0-26.29,12-26.29,26.85,0,15.15,11.13,26.86,26.29,26.86,15.36,0,26.3-11.87,26.3-26.86S302.17,73.56,286.65,73.56Zm0,42.2c-8.66,0-15-6.69-15-15.35,0-8.5,6.17-15.34,15-15.34s15,6.84,15,15.34S295.43,115.76,286.65,115.76Z"/><path class="cls-2" d="M351.6,115.41c-8.47,0-14.68-6.54-14.68-15,0-8.31,6-15,14.68-15s14.69,6.68,14.69,15S360.18,115.41,351.6,115.41ZM337.34,120a19.71,19.71,0,0,0,1.88,1.91,20.59,20.59,0,0,0,3.63,2.51,22.43,22.43,0,0,0,4.91,1.92,25,25,0,0,0,6.38.74,24,24,0,0,0,10-2.07,23.4,23.4,0,0,0,7.83-5.7,26.2,26.2,0,0,0,5-8.49,30.06,30.06,0,0,0,1.8-10.49,31.88,31.88,0,0,0-1.69-10.47,24.4,24.4,0,0,0-5-8.51,23.67,23.67,0,0,0-7.93-5.69,25.61,25.61,0,0,0-10.56-2.08,24.3,24.3,0,0,0-10.11,2.13,16.42,16.42,0,0,0-6.8,5.75V75H323.84v79.58h13.5Z"/><path class="cls-2" d="M230.12,63H207l5-12.15h54.67V63H243.55v63H230.12Z"/></svg>